<svg xmlns="http://www.w3.org/2000/svg" viewBox="0 0 162.41 147.71"><defs><style>.cls-1{fill:#222;}.cls-2{fill:#fff;}.cls-3{stroke:#000;stroke-miterlimit:10;stroke-width:0.75px;}.cls-4{fill:#ff6700;}</style></defs><title>ohbug 无字体logo</title><polygon class="cls-1" points="68.44 50.4 67.14 53.41 72.08 60.56 75.72 55.48 68.44 50.4"/><path d="M219,100h0l0,.06Z" transform="translate(-56.62 -26.15)"/><path d="M123.08,77.53c-.24-.1-.5-.19-.75-.27l0,0a7,7,0,0,0-1.53-.37l-.33,0a24.06,24.06,0,0,0-3.78-.19h.75a10.34,10.34,0,0,1,2.94.14A7.76,7.76,0,0,1,123.08,77.53Z" transform="translate(-56.62 -26.15)"/><path d="M139.28,74a16.29,16.29,0,0,1-1.71.06c-4.31-8.79-13.46-11.75-14.68-12.12A15.42,15.42,0,1,1,139.28,74Z" transform="translate(-56.62 -26.15)"/><path class="cls-2" d="M139.28,74a16.29,16.29,0,0,1-1.71.06c-4.31-8.79-13.46-11.75-14.68-12.12A15.42,15.42,0,1,1,139.28,74Z" transform="translate(-56.62 -26.15)"/><circle cx="82.6" cy="32.2" r="4.82"/><path d="M109.58,93.89Z" transform="translate(-56.62 -26.15)"/><path d="M98.06,99.72a21.76,21.76,0,0,1-2.9.15C96.09,99.84,97.06,99.8,98.06,99.72Z" transform="translate(-56.62 -26.15)"/><path d="M117.1,76.62h0Z" transform="translate(-56.62 -26.15)"/><path d="M120.82,76.89l-.39-.06a18.75,18.75,0,0,0-3.29-.21h.26a10.34,10.34,0,0,1,2.94.14,3.31,3.31,0,0,1,.42.12Z" transform="translate(-56.62 -26.15)"/><path class="cls-1" d="M216.7,56.64c-1.29,7.2-3.36,14.17-7.22,20.36a14.63,14.63,0,0,0-2,10.6,72.91,72.91,0,0,1-6.49,43A74.47,74.47,0,0,1,176.82,159a78.17,78.17,0,0,1-23.72,11.84,73.71,73.71,0,0,1-41.32.21c-20-5.8-35.39-17.86-45.6-36.26A76.7,76.7,0,0,1,60,120.42s0,0,0-.07c-.39-1.24-.75-2.49-1.07-3.74A75.06,75.06,0,0,1,57.31,88q.39-2.91,1-5.7c2.54-9.84,9.21-22.2,11.88-26.91l.37-.67c-.06.73-.11,1.45-.14,2.16h0a.13.13,0,0,1,0,.06c-.54,1.69-7.47,24.2,2.45,37.23,4.21,5.54,11.47,9.36,23.56,9.13h0c1,0,2.06-.07,3.14-.14h0c1.13-.08,2.24-.19,3.31-.33h0a45.58,45.58,0,0,0,10.52-2.63l.3-.1h0a38.81,38.81,0,0,0,5.41-2.59l.06,0c.84-.48,1.64-1,2.38-1.51h0l.54-.47,0,0c.19-.2.45-.47.75-.83a28.48,28.48,0,0,0,4.23-6.15c.21-.43.41-.88.58-1.33,1.52-4,1-8.37-6.29-10.24l-.29-.25-.64-.06-.38,0h-.33a4.75,4.75,0,0,0-.65,0,21.8,21.8,0,0,0-2.46.11h-.07a17.49,17.49,0,0,0-7.11,1.73c-.56.26-1.18.39-2.1.7l0-.07a23.31,23.31,0,0,1-1.08-3.17,39.51,39.51,0,0,1-.6-4.78,40.39,40.39,0,0,1,4.61-21.22c-.51-1.8-2.59-9.4-1.6-8.85s2.06,4.94,2.58,7.07l.11-.18c0-.07.08-.13.12-.21a.1.1,0,0,1,0-.05.64.64,0,0,1,.08-.14h0c0-1.28-.14-14,1-13.08.9.77.88,7.23.82,10.27.35-.49.72-1,1.1-1.45A43,43,0,0,1,130,30.71c12.35-5.89,25-6.24,37.22-.11a76.38,76.38,0,0,1,10,6.25c6.55,3.22,14.13,6.55,17.15,6.36,4.56-.3-.49,2.42-2.77,3.57A58,58,0,0,0,201.73,52a24,24,0,0,0,12.09,1.37C216.76,53,217.23,53.68,216.7,56.64Z" transform="translate(-56.62 -26.15)"/><path class="cls-2" d="M139.29,74a16.63,16.63,0,0,1-1.72,0c-4.31-8.79-13.46-11.76-14.68-12.11a16.3,16.3,0,0,1-.3-2,15.42,15.42,0,1,1,16.7,14Z" transform="translate(-56.62 -26.15)"/><path class="cls-1" d="M116.65,76.64Z" transform="translate(-56.62 -26.15)"/><path d="M125.72,80.61c0,.14.06.27.09.42a5.81,5.81,0,0,0-1.52-.74C124.77,80.38,125.25,80.48,125.72,80.61Z" transform="translate(-56.62 -26.15)"/><path d="M126.12,81.23l0,0h0Z" transform="translate(-56.62 -26.15)"/><path d="M118.2,88.37l-.15.1.2-.11Z" transform="translate(-56.62 -26.15)"/><path class="cls-3" d="M128.23,84.92a8.56,8.56,0,0,0-.36-2.14,9.16,9.16,0,0,0-.58-1.47A10.32,10.32,0,0,0,125.73,79l-.07,0a10.16,10.16,0,0,0-2.13-1.85,1.09,1.09,0,0,0-.23-.09c-.34-.13-.68-.23-1-.34l-.72-.18h0l-.3-.08-.95-.2h-.6a21,21,0,0,0-2.62.1l.48.19-.68,0a13.42,13.42,0,0,1,1.78.89c2.65,1.58,6.62,5.23-.38,10.47l.66-.15c-.17.14-.36.27-.55.4s-.37.24-.56.36l-.12.07.07,0,.48-.31a29.32,29.32,0,0,1-3,1.28c-.9.35-1.81.65-2.66.91-2.33.74-4.19,1.14-4.33,1.18s-.24.06-.55.15-.87.23-1.51.36c-.27.07-.56.13-.88.19a42.1,42.1,0,0,1-8.13.82c-8.31,0-19-2.7-24-15.28l0,0a39,39,0,0,1-2.25-9.06v0a65.07,65.07,0,0,1-.35-11.94v0c0-.7.07-1.42.13-2.16,0-.34.05-.68.09-1a0,0,0,0,1,0,0c0,.06-.11.36-.24.85,0,.09,0,.18-.07.27a.06.06,0,0,0,0,0c0,.1-.06.21-.09.34s0,.11,0,.17a1.6,1.6,0,0,0,0,.21,4,4,0,0,0-.11.41l-.11.48c0,.2-.09.4-.14.62v0a.45.45,0,0,0,0,.08c-.54,1.69-7.48,24.2,2.45,37.23,4.21,5.54,11.47,9.35,23.56,9.13h0c1,0,2.06-.07,3.14-.15h0c1.12-.07,2.2-.18,3.26-.32h0l.33,0a35.91,35.91,0,0,0,12.7-2.66l.24-.1a23.51,23.51,0,0,0,6.34-4h0a20.75,20.75,0,0,0,1.56-1.54c.41-.46.77-.9,1.11-1.33.13-.19.27-.37.39-.55a14.2,14.2,0,0,0,.82-1.28l0,0A9.3,9.3,0,0,0,128.23,84.92Zm-5.07-2a.83.83,0,0,0,0-.15l.3,0-.11.16-.4.56A3.38,3.38,0,0,0,123.16,83Zm-.22-5.39h0s0,0,0,0Zm1.25,5.31,0-.15,2.16-.17h.17l.06.15ZM127,88.28l-.15,0,0,0,.13,0S127,88.24,127,88.28Z" transform="translate(-56.62 -26.15)"/><path class="cls-4" d="M105.67,71.05s0,5.53,1.7,8a13.41,13.41,0,0,0,2.09-.7C110.52,77.91,105.75,73.34,105.67,71.05Z" transform="translate(-56.62 -26.15)"/><path class="cls-4" d="M119.86,76.55Z" transform="translate(-56.62 -26.15)"/><path d="M103.16,79.08" transform="translate(-56.62 -26.15)"/><circle class="cls-1" cx="81.34" cy="31.36" r="6.42"/><polygon class="cls-1" points="14.41 25.93 13.24 29.76 12.29 32.21 11.1 34.82 10.6 34.61 14.41 25.93"/><path d="M128.24,85.19A17.2,17.2,0,0,1,121.51,97V93.67Z" transform="translate(-56.62 -26.15)"/><path class="cls-3" d="M128.32,85.79c0,4.12-2,7.61-4.73,8.8a5.27,5.27,0,0,1-2.08.43c-2.79,0-5.19-2.27-6.25-5.53a29.32,29.32,0,0,0,3-1.28l-.48.31-.07,0,.12-.07c.19-.12.39-.24.56-.36s.38-.26.55-.4l-.66.15c7-5.24,3-8.89.38-10.47a5.32,5.32,0,0,1,2.89-.87h0C125.28,76.56,128.32,80.69,128.32,85.79Z" transform="translate(-56.62 -26.15)"/><path d="M127,91.56s-2.65,5.56-11.32,8.57,1.47-6.24,1.47-6.24l4.65-3.66Z" transform="translate(-56.62 -26.15)"/></svg>
