<svg xmlns="http://www.w3.org/2000/svg" xmlns:xlink="http://www.w3.org/1999/xlink" viewBox="0 0 728.29 585.96"><defs><style>.cls-1{fill:url(#白色_黑色);}.cls-11,.cls-12,.cls-13,.cls-17,.cls-18,.cls-2,.cls-23,.cls-26,.cls-38,.cls-40,.cls-44,.cls-50,.cls-60,.cls-61,.cls-70,.cls-8,.cls-86,.cls-87,.cls-89{fill:none;}.cls-3{isolation:isolate;}.cls-4{fill:#b06bdd;}.cls-19,.cls-4,.cls-46,.cls-5{opacity:0.25;}.cls-22,.cls-31,.cls-4,.cls-42,.cls-49,.cls-5,.cls-57,.cls-84{mix-blend-mode:multiply;}.cls-5{fill:#3e6bdd;}.cls-6,.cls-7{fill:#ff6f61;}.cls-6{opacity:0.47;}.cls-8{stroke:#25cc74;}.cls-11,.cls-12,.cls-13,.cls-17,.cls-23,.cls-26,.cls-40,.cls-60,.cls-70,.cls-8,.cls-86,.cls-87{stroke-linecap:round;}.cls-11,.cls-12,.cls-13,.cls-17,.cls-18,.cls-23,.cls-26,.cls-38,.cls-44,.cls-50,.cls-60,.cls-61,.cls-70,.cls-8,.cls-86,.cls-87,.cls-89{stroke-miterlimit:10;}.cls-13,.cls-17,.cls-18,.cls-26,.cls-40,.cls-60,.cls-61,.cls-70,.cls-8{stroke-width:1.02px;}.cls-9{fill:#e8f8ff;}.cls-10{fill:#f9ae35;}.cls-11,.cls-13,.cls-61{stroke:#4b5efc;}.cls-11,.cls-12{stroke-width:8px;}.cls-12,.cls-17,.cls-18,.cls-23,.cls-86,.cls-87{stroke:#fff;}.cls-14{fill:#4072ff;}.cls-15{fill:#3352f6;}.cls-16,.cls-22{fill:#fea1ba;}.cls-19,.cls-20,.cls-53,.cls-88{fill:#fff;}.cls-21{fill:#29ecaa;}.cls-22,.cls-32,.cls-42,.cls-53,.cls-57,.cls-84{opacity:0.5;}.cls-24{fill:#16286e;}.cls-25{fill:#22408c;}.cls-26{stroke:#0071bc;}.cls-27{fill:#061138;}.cls-28{fill:#1c3568;}.cls-29{fill:#ffc4d0;}.cls-30{clip-path:url(#clip-path);}.cls-31{fill:#b754e1;}.cls-31,.cls-74{opacity:0.35;}.cls-32{fill:#cb61de;mix-blend-mode:screen;}.cls-33{fill:#2b5de6;}.cls-34{fill:#f4a8bb;}.cls-35{clip-path:url(#clip-path-2);}.cls-36{fill:#ffe1e8;}.cls-37{clip-path:url(#clip-path-3);}.cls-38{stroke:#4072ff;}.cls-38,.cls-86,.cls-87{stroke-width:1.5px;}.cls-39{fill:#104dbd;}.cls-40{stroke:#f7931e;stroke-linejoin:round;}.cls-41{clip-path:url(#clip-path-4);}.cls-42,.cls-43{fill:#373cae;}.cls-44{stroke:#febcba;stroke-width:2px;}.cls-45{mask:url(#mask);}.cls-46{fill:#6ca4ff;}.cls-47{fill:#cec7f1;}.cls-48,.cls-49{fill:#e9f4ff;}.cls-50{stroke:#b2d5ff;}.cls-51{fill:#ffd2e0;}.cls-52{clip-path:url(#clip-path-5);}.cls-54{fill:#3751e6;}.cls-55{fill:#cfd6ff;}.cls-56{fill:#0c0349;}.cls-57{fill:url(#未命名的渐变_4);}.cls-58{fill:#00ceb5;}.cls-59{fill:#1de6d4;}.cls-60{stroke:#00a890;}.cls-62{fill:#3355e6;}.cls-63{fill:#002fe9;}.cls-64{fill:#5061fe;}.cls-65{fill:#00a99d;}.cls-66{fill:#06cebb;}.cls-67{clip-path:url(#clip-path-6);}.cls-68{fill:#0f45bc;}.cls-69{fill:#1636cc;}.cls-70{stroke:#6e8aff;}.cls-71{fill:#0d1342;}.cls-72{clip-path:url(#clip-path-7);}.cls-73{fill:#1e2866;}.cls-75{fill:#557eff;}.cls-76{fill:#71ffcc;}.cls-77{clip-path:url(#clip-path-8);}.cls-78{fill:#6be0d1;}.cls-79{clip-path:url(#clip-path-9);}.cls-80{fill:#fe9bb9;}.cls-81{clip-path:url(#clip-path-10);}.cls-82{fill:#ffc5bf;}.cls-83,.cls-84{fill:#4445e5;}.cls-85{fill:#ce63dd;}.cls-87{stroke-dasharray:7.88 7.88;}.cls-88{font-size:8.76px;font-family:SourceHanSansCN-Bold, SourceHanSansCN Bold-GBpc-EUC-H;font-weight:700;}.cls-89{stroke:blue;}</style><linearGradient id="白色_黑色" x1="476.26" y1="317.95" x2="568.24" y2="288.66" gradientTransform="translate(140.91 -138.03) rotate(20.31)" gradientUnits="userSpaceOnUse"><stop offset="0" stop-color="#fff"/><stop offset="1"/></linearGradient><clipPath id="clip-path"><path class="cls-2" d="M554.55,264.72s-5.24.21-8.07,7-18.06,42-18.06,42a44.19,44.19,0,0,0,10.81,6.25l11.28,4.52,5.06-11.09s4.78-33.67,2.69-39.16S554.55,264.72,554.55,264.72Z"/></clipPath><clipPath id="clip-path-2"><path class="cls-2" d="M569.73,235.75a42.12,42.12,0,0,1,1.87,14.07c-.41,7.3-13.45,14.93-16.8,16s27.8,7.47,27.8,7.47l23.23-10.86s-12.7-9.57-14.73-20a199.84,199.84,0,0,1-2.71-24.25Z"/></clipPath><clipPath id="clip-path-3"><path class="cls-2" d="M562.17,264.27a10,10,0,0,0-6.53,0c-1.31.46-2.47,1.19-2.69,2.33-.74,4,.83,43.14,1.6,59.28s-1.29,55.51-1.29,55.51h69.15s-8.57-97.73-10.72-108.11-8.94-13.34-8.94-13.34-8.65,7.63-20.15,7.53A66.26,66.26,0,0,1,562.17,264.27Z"/></clipPath><clipPath id="clip-path-4"><path class="cls-2" d="M617.09,378.41s12.19,8,8.07,25.35S609.89,423,602.34,422.29s-68.3-13.9-73.11-14.59-64.52,87.41-64.52,87.41-6.64.11-13.62-5.38-7.55-7.32-7.55-7.32,44.51-77.8,51.37-87.06,15.46-23.24,40.73-20.37S617.09,378.41,617.09,378.41Z"/></clipPath><mask id="mask" x="296.15" y="182.08" width="319.44" height="284.71" maskUnits="userSpaceOnUse"><rect class="cls-1" x="323.62" y="221.58" width="264.49" height="205.71" transform="translate(-84.26 178.36) rotate(-20.31)"/></mask><clipPath id="clip-path-5"><polygon class="cls-2" points="361.97 368.78 340.92 368.78 336.12 333.54 366.78 333.54 361.97 368.78"/></clipPath><linearGradient id="未命名的渐变_4" x1="441.25" y1="380.24" x2="421" y2="350.72" gradientUnits="userSpaceOnUse"><stop offset="0" stop-color="#fff"/><stop offset="1" stop-color="#cec7f1"/></linearGradient><clipPath id="clip-path-6"><path class="cls-2" d="M90.45,101s-.4,5.67-.38,10.15c0,2.07,1.64,1.85,1.91,2.75.85,2.83,2,.68,2,.68l10.11,16.63-3.77,14.5-19.14-.26-11.24-13-2.31-19.14a7.58,7.58,0,0,0,3.26-6.34c0-4.38,1.23-19.79.78-26.48s12.37,5,12.37,5Z"/></clipPath><clipPath id="clip-path-7"><path class="cls-2" d="M72.9,58.25c1.54-.09,12.34,9.07,24,8.49S113,60.47,110,52.37s-14.66-12.83-26.81-12-22,4.44-23.34,13.5.67,25.37.67,25.37,8.87,2.7,8.87-8.2S71.35,58.35,72.9,58.25Z"/></clipPath><clipPath id="clip-path-8"><path class="cls-2" d="M703.88,503.42s-1.51-29.15,18-65.67c0,0,5.78,29.54-12.42,75.1S703.88,503.42,703.88,503.42Z"/></clipPath><clipPath id="clip-path-9"><path class="cls-2" d="M691.74,475.13s-6.75-22.49-.46-81.26c0,0,16.75,17.41,15.51,118.09L698,512Z"/></clipPath><clipPath id="clip-path-10"><path class="cls-2" d="M695.74,510.11s-24.81-23.2-27.19-89.56c0,0,28.21,20.56,31.11,90.34"/></clipPath></defs><title>资源 6</title><g class="cls-3"><g id="图层_2" data-name="图层 2"><g id="_1920x1080" data-name="1920x1080"><rect class="cls-4" x="282.29" y="543.86" width="438.82" height="21.46" rx="10.73"/><rect class="cls-5" x="23.32" y="543.86" width="139.99" height="21.46" rx="10.73"/><path class="cls-6" d="M367,222.29c-70.54-17.83-164.63,4.57-184.82,83.28s7.21,171,166.24,154.64C495.9,445,528.59,522.88,615.72,522.58c48.72-.17,124.74-23,92.81-112.87s-39-80.55,4.83-168.17-75.64-171.34-168-93.79C504.14,182.34,437.53,240.11,367,222.29Z"/><rect class="cls-7" x="131.56" y="50.26" width="318.5" height="184.33"/><rect class="cls-8" x="124.92" y="44.02" width="318.5" height="184.33"/><rect class="cls-9" x="146.26" y="83.75" width="90.61" height="117.04"/><rect class="cls-10" x="244.53" y="83.75" width="90.61" height="117.04"/><line class="cls-11" x1="158.1" y1="104" x2="224.07" y2="104"/><line class="cls-11" x1="158.1" y1="116.92" x2="224.07" y2="116.92"/><line class="cls-12" x1="256.5" y1="138.66" x2="322.4" y2="138.66"/><line class="cls-12" x1="256.5" y1="151.28" x2="322.4" y2="151.28"/><line class="cls-13" x1="184.26" y1="136.87" x2="225.43" y2="136.87"/><line class="cls-13" x1="184.26" y1="144.77" x2="225.43" y2="144.77"/><line class="cls-13" x1="184.26" y1="152.66" x2="225.43" y2="152.66"/><circle class="cls-14" cx="167.95" cy="144.77" r="10.67"/><circle class="cls-15" cx="167.95" cy="141.06" r="3.71"/><rect class="cls-16" x="156.21" y="166.69" width="70.82" height="28.49" rx="5.58"/><ellipse class="cls-15" cx="167.95" cy="151.28" rx="8.43" ry="4.15"/><line class="cls-17" x1="284.86" y1="103.48" x2="320.44" y2="103.48"/><line class="cls-17" x1="284.78" y1="112.41" x2="320.36" y2="112.41"/><line class="cls-17" x1="284.86" y1="121.57" x2="320.44" y2="121.57"/><rect class="cls-18" x="254.49" y="163.91" width="70.82" height="28.49" rx="5.58"/><circle class="cls-19" cx="266.22" cy="113.56" r="14.23"/><circle class="cls-20" cx="266.22" cy="108.62" r="4.95"/><ellipse class="cls-20" cx="266.22" cy="122.26" rx="11.25" ry="5.54"/><rect class="cls-16" x="343.95" y="83.75" width="90.61" height="117.04"/><line class="cls-18" x1="352.18" y1="122.94" x2="425.79" y2="122.94"/><line class="cls-18" x1="352.18" y1="131.92" x2="425.79" y2="131.92"/><polyline class="cls-17" points="426.18 186.67 353.65 186.67 353.65 144.14"/><rect class="cls-20" x="351.79" y="105.71" width="74.39" height="8.92" rx="4.46"/><polyline class="cls-18" points="357.65 171.87 369.85 158.31 383 165.4 407.81 146.24 424.76 161.02"/><circle class="cls-21" cx="357.81" cy="171.74" r="0.94"/><circle class="cls-21" cx="369.87" cy="158.48" r="0.94"/><circle class="cls-21" cx="383.04" cy="165.4" r="0.94"/><circle class="cls-21" cx="407.86" cy="146.37" r="0.94"/><circle class="cls-21" cx="424.76" cy="161.04" r="0.94"/><path class="cls-22" d="M403.73,70.2a30.28,30.28,0,0,1-4.55,23.68h22.91s3.28-6.18,2.16-23.68Z"/><rect class="cls-6" x="418.34" y="4.12" width="89.69" height="58.58" rx="14"/><path class="cls-21" d="M440.27,22.23a14.09,14.09,0,0,0-14.09,14.09h0A14.08,14.08,0,0,0,440.27,50.4h0a14.08,14.08,0,0,0,14.08-14.08H440.27Z"/><path class="cls-14" d="M441.83,20.84V34.92h14.08A14.08,14.08,0,0,0,441.83,20.84Z"/><line class="cls-23" x1="461.48" y1="24.83" x2="496.25" y2="24.83"/><line class="cls-23" x1="461.48" y1="32.38" x2="496.25" y2="32.38"/><line class="cls-23" x1="461.48" y1="39.93" x2="496.25" y2="39.93"/><line class="cls-23" x1="479.78" y1="47.48" x2="496.25" y2="47.48"/><polygon class="cls-24" points="637.72 533.77 621.74 420.12 611.96 421.49 632.04 533.77 637.72 533.77"/><polygon class="cls-24" points="584.9 533.77 568.92 420.12 559.14 421.49 579.22 533.77 584.9 533.77"/><path class="cls-25" d="M594.24,273.25h56.82a11.67,11.67,0,0,1,11.49,13.68L638.31,425.5a14.4,14.4,0,0,1-14.19,11.92H545.73A8.45,8.45,0,0,1,537.81,426Z"/><path class="cls-24" d="M651.35,273.26a11.64,11.64,0,0,1,.84,6.75L628,418.58a14.41,14.41,0,0,1-14.19,11.93H537.43a8.44,8.44,0,0,0,8.3,6.91h78.39a14.4,14.4,0,0,0,14.19-11.92l24.24-138.57A11.66,11.66,0,0,0,651.35,273.26Z"/><path class="cls-26" d="M637.56,363.63,628,418.58a14.41,14.41,0,0,1-14.19,11.93h-18"/><circle class="cls-27" cx="595.67" cy="175.88" r="13.61"/><path class="cls-28" d="M595.67,162.27a13.48,13.48,0,0,0-7.34,2.17,14.26,14.26,0,0,1,15.79,22.11,13.61,13.61,0,0,0-8.45-24.28Z"/><path class="cls-29" d="M555.66,268.87s-4.23-3.72-9.27,7.15-17.16,47.42-19.22,46.91-11.9-36.5-12.81-38.9,2.67-9.68-1.2-14.87c-5.08-6.81-16.57-1.58-23.53-3.21s-10.22-6.48-12.69-4.89-.82,7.55,10.16,11.59,13.06.56,15.15,8.4c1.9,7.13,14.11,65.73,16.86,70s11.32,5.61,16.41-1.31,20.83-36.44,22.37-46.91S555.66,268.87,555.66,268.87Z"/><path class="cls-10" d="M554.55,264.72s-5.24.21-8.07,7-18.06,42-18.06,42a44.19,44.19,0,0,0,10.81,6.25l11.28,4.52,5.06-11.09s4.78-33.67,2.69-39.16S554.55,264.72,554.55,264.72Z"/><g class="cls-30"><path class="cls-31" d="M562.47,269.79s-5.06.87-7.86,8.15c-3.11,8.09-8.13,18.8-9.81,30.59a38.18,38.18,0,0,1-4.46,13.89l23.56,10.87,4.3-12.2s1.83-36-.9-41.65S562.47,269.79,562.47,269.79Z"/></g><path class="cls-32" d="M549.39,270.37a15.17,15.17,0,0,1,3.23-5.18c-1.78.69-4.41,2.37-6.14,6.51-2.83,6.78-18.06,42-18.06,42s1,.84,2.75,2C535.38,305.27,546.87,276.82,549.39,270.37Z"/><path class="cls-29" d="M492.83,543.06s17.43-5.76,21.37-11.55,4.23-10.17,4.23-10.17l19.1-.2-1.3,15.08-26.77,10.67-13.14,2.81Z"/><path class="cls-33" d="M494.62,543.38a4.5,4.5,0,0,0-3.51.08c-2.74,1.26-7.18,3.22-8.49,3.27-3.56.15-3.62,6.14-1.46,7.51s18.61-1.47,29-5.1,18.46-3.49,21.61-2.71a15.09,15.09,0,0,0,5.66.34s1.44-12.57,1.54-13.61-1.17-2-3.21-.35-6.29,2.73-11,2-9.71,4.38-13.45,5.74C500.87,544.3,496.45,544.07,494.62,543.38Z"/><path class="cls-13" d="M510.67,534.8a11.56,11.56,0,0,1,4.88,6.14"/><path class="cls-13" d="M512.47,533.77a11.56,11.56,0,0,1,4.88,6.14"/><path class="cls-34" d="M517.54,525c4.16,1.63,10.4,2.8,19.49,1.85l.5-5.72-19.1.2A15.88,15.88,0,0,1,517.54,525Z"/><path class="cls-29" d="M413.33,487.3s17.67,5,24.18,2.36,9.18-6.07,9.18-6.07l15.95,10.51-9.5,11.78L425,499.77l-12.47-5Z"/><path class="cls-33" d="M414.64,488.56a4.5,4.5,0,0,0-2.95-1.89c-3-.49-7.77-1.35-8.88-2-3-1.87-6.43,3.07-5.4,5.41s16.25,9.18,26.88,12,17.26,7.43,19.44,9.83a15.2,15.2,0,0,0,4.51,3.44s8.21-9.61,8.88-10.42.18-2.36-2.47-2.08-6.74-1.26-10.17-4.51-10.5-1.79-14.36-2.76C419.3,492.82,415.77,490.16,414.64,488.56Z"/><path class="cls-13" d="M432.74,490.41a11.58,11.58,0,0,1,.62,7.83"/><path class="cls-13" d="M434.81,490.57a11.55,11.55,0,0,1,.61,7.83"/><path class="cls-34" d="M443.91,486.14c2.53,3.68,7.06,8.13,15.13,12.43l3.6-4.47-15.95-10.51A15.59,15.59,0,0,1,443.91,486.14Z"/><path class="cls-27" d="M552.46,219.39s-8.86-5.57-7.1-18.87c2-14.88,19.92-30.26,39.21-22.6,13.51,5.36,17.42,25,11.5,39.64C589.52,233.8,552.46,219.39,552.46,219.39Z"/><path class="cls-28" d="M584.57,177.92c-13-5.18-25.47.18-32.76,8.8,7.59-6.45,18.43-9.7,29.73-5.21,13.56,5.38,17.66,24.8,12.08,39.71a10.38,10.38,0,0,0,2.45-3.66C602,202.89,598.08,183.28,584.57,177.92Z"/><path class="cls-29" d="M569.73,235.75a42.12,42.12,0,0,1,1.87,14.07c-.41,7.3-13.45,14.93-16.8,16s27.8,7.47,27.8,7.47l23.23-10.86s-12.7-9.57-14.73-20a199.84,199.84,0,0,1-2.71-24.25Z"/><g class="cls-35"><path class="cls-34" d="M581.59,217s2.7,24.71-2.68,31.12a25.91,25.91,0,0,1-22.42,9.27c-9.27-.69,9.72-34.67,9.72-34.67Z"/></g><path class="cls-29" d="M564.93,190.45s-9.19,3.77-10.64,12.61-3.44,24,3.69,31.58,14.67,3.51,20.33-1.81,11.24-9,11.33-14.32-19.22-27.29-19.22-27.29Z"/><path class="cls-36" d="M560,234c-7.51-8-5.43-24-3.89-33.33a15,15,0,0,1,1.81-5,14.92,14.92,0,0,0-3.61,7.44c-1.46,8.84-3.44,24,3.69,31.58,3.81,4,7.75,4.76,11.46,3.74C566.33,238.52,563.12,237.32,560,234Z"/><path class="cls-27" d="M563.12,187.87a35.35,35.35,0,0,0,9,23.51c9.7,10.73,15.88,11.47,19,10.67S594.79,212,594.79,212l-21.11-25.57L562,186.07Z"/><path class="cls-10" d="M562.17,264.27a10,10,0,0,0-6.53,0c-1.31.46-2.47,1.19-2.69,2.33-.74,4,.83,43.14,1.6,59.28s-1.29,55.51-1.29,55.51h69.15s-8.57-97.73-10.72-108.11-8.94-13.34-8.94-13.34-8.65,7.63-20.15,7.53A66.26,66.26,0,0,1,562.17,264.27Z"/><g class="cls-37"><path class="cls-31" d="M606.54,298.76s-.86,14.91-.54,27.12a61.83,61.83,0,0,1-1.35,14.84c-.78,3.22-8.9,6.79-17.06,6.44-16.63-.73-37.94,4.11-37.94,4.11l-2.91,37.24h89.92l-8.58-44.87-16.82-49.06Z"/></g><path class="cls-29" d="M610.7,329.32s1.59,16.1-.51,18.22-46.74,2.83-54.8,3-16.75-.59-19.67.43-6.41,8.34-5.59,9.88c1.55,2.88,6.12,2.89,11.5,2.78a11.81,11.81,0,0,0,7.44-2.66,2.32,2.32,0,0,1,1.62-.55c7.37.35,53.51,2.56,62.24,2.88,9.5.34,19-.66,18.92-6.92l-1.13-26.71Z"/><path class="cls-10" d="M602.34,278.65s4.23,21.05,5.6,32.72.14,18.8.14,18.8,17.71,3.63,23.77-1.06c0,0-1-34.33-4.69-46.57S616.57,265,603.25,260.17Z"/><path class="cls-32" d="M622.36,281.07c3.53,11.8,4.85,42.05,5.14,49.85a10.87,10.87,0,0,0,4.35-1.81s-1-34.33-4.69-46.57c-3.07-10.28-8.46-15.65-18-20C615.65,266.83,619.75,272.36,622.36,281.07Z"/><path class="cls-38" d="M549.55,210.05h6.22a2.4,2.4,0,0,1,2.4,2.4v3.11a5.51,5.51,0,0,1-5.51,5.51h0a5.51,5.51,0,0,1-5.51-5.51v-3.11a2.4,2.4,0,0,1,2.4-2.4Z"/><path class="cls-38" d="M565.51,210.05h6.22a2.4,2.4,0,0,1,2.4,2.4v3.11a5.51,5.51,0,0,1-5.51,5.51h0a5.51,5.51,0,0,1-5.51-5.51v-3.11A2.4,2.4,0,0,1,565.51,210.05Z"/><line class="cls-38" x1="558.17" y1="214.62" x2="563.11" y2="214.62"/><path class="cls-39" d="M617.09,378.41s12.19,8,8.07,25.35S609.89,423,602.34,422.29s-68.3-13.9-73.11-14.59-64.52,87.41-64.52,87.41-6.64.11-13.62-5.38-7.55-7.32-7.55-7.32,44.51-77.8,51.37-87.06,15.46-23.24,40.73-20.37S617.09,378.41,617.09,378.41Z"/><path class="cls-40" d="M606.54,295.84s.24,7.21.83,18.76c.61,11.74.71,15.57.71,15.57s17.71,3.63,23.77-1.06"/><line class="cls-38" x1="574" y1="214.62" x2="578.94" y2="214.62"/><path class="cls-29" d="M575.48,215.36s-.09-2.69,3.23-3.43,5.61,1.41,6.14,4.56c1,6-5,6.56-6.28,5Z"/><path class="cls-34" d="M579,215.12c-.13.83.48,1.33.28,2.37s-.32,2.41.61,2.22,3.1-2.84,2.5-4.79S579.1,214.28,579,215.12Z"/><g class="cls-41"><path class="cls-42" d="M525.59,415.42s-13.22-5.66-20.42,6.18-17.68,34-26.95,42.47-14.76,21.17-18.45,32.59,27.38-1.55,27.38-1.55l20.42-45.54Z"/><path class="cls-42" d="M479.74,372.35s19.85,14.47,44,11.95c23.82-2.49,43.48-3.24,58-.46,14.3,2.75,42.13,1.78,43.23-5.53s-49.34-15.7-49.34-15.7l-82.73-7.28Z"/></g><path class="cls-43" d="M515.33,522s-3-89-3.09-99.19,7.53-17.65,21.36-14.27c8,2,23.84,5.07,37.79,7.83l27,5.33s-51.18.26-52.21,1.37-5.92,98.76-5.92,98.93-3.83,1.89-12.64,1.72S515.33,522,515.33,522Z"/><path class="cls-13" d="M446.85,476.63s8,10.45,21.39,13.29"/><path class="cls-13" d="M591.14,387.62s-1.12,9.95,11.2,12.53"/><line class="cls-13" x1="443.54" y1="482.41" x2="461.64" y2="450.98"/><path class="cls-13" d="M515.07,514.09s13.71,3.61,25.54,0"/><path class="cls-20" d="M368.19,313.92h3.43a6.94,6.94,0,0,0,0-13.88H324.84a6.94,6.94,0,0,0,0,13.88h22a3.48,3.48,0,0,1,0,6.95H336.05a3.57,3.57,0,0,0-3.62,3.36,3.48,3.48,0,0,0,3.48,3.58H338a3.82,3.82,0,0,1,3.83,3.83v4.23H351v-4.23a3.82,3.82,0,0,1,3.83-3.83h14.71a3.56,3.56,0,0,0,3.61-3.36,3.47,3.47,0,0,0-3.47-3.58h-1.5a3.48,3.48,0,0,1,0-6.95Z"/><circle class="cls-44" cx="365.9" cy="348.42" r="7.05"/><g class="cls-45"><polygon class="cls-46" points="405.06 285.26 552.62 189.5 598.34 363.63 477.71 363.63 405.06 285.26"/></g><path class="cls-47" d="M512.67,363.63H601a2.3,2.3,0,0,1,2.3,2.3v2.84a0,0,0,0,1,0,0H512.67a0,0,0,0,1,0,0v-5.15A0,0,0,0,1,512.67,363.63Z"/><path class="cls-47" d="M514,368.78H420.64a5.74,5.74,0,0,1-5.68-4.91L404.29,291a5,5,0,0,1,4.95-5.73H504a5,5,0,0,1,4.95,4.28l10.64,72.66A5.74,5.74,0,0,1,514,368.78Z"/><path class="cls-48" d="M509.77,368.78H416.46a5.74,5.74,0,0,1-5.68-4.91L400.11,291a5,5,0,0,1,4.95-5.73h94.8a5,5,0,0,1,4.95,4.28l10.64,72.66A5.74,5.74,0,0,1,509.77,368.78Z"/><circle class="cls-49" cx="455.87" cy="328.19" r="7.12"/><circle class="cls-50" cx="454.98" cy="327.14" r="7.12"/><path class="cls-51" d="M360,368.78H342.91a2.27,2.27,0,0,1-2.25-2l-4.54-33.27h30.66l-4.54,33.27A2.28,2.28,0,0,1,360,368.78Z"/><g class="cls-52"><rect class="cls-53" x="333" y="344.07" width="37.32" height="7.21"/></g><polygon class="cls-54" points="516.63 186.07 515.38 174.27 505.78 181.26 516.63 186.07"/><rect class="cls-54" x="480" y="142.61" width="40.67" height="40.67" rx="20.34"/><rect class="cls-20" x="489.14" y="160.49" width="4.91" height="4.91" rx="2.45"/><rect class="cls-20" x="497.88" y="160.49" width="4.91" height="4.91" rx="2.45"/><rect class="cls-20" x="506.63" y="160.49" width="4.91" height="4.91" rx="2.45"/><polygon class="cls-55" points="302.54 554.34 334.46 375.85 319.85 373.79 294.47 554.34 302.54 554.34"/><polygon class="cls-55" points="413.84 554.34 388.46 373.79 373.85 375.85 405.77 554.34 413.84 554.34"/><polygon class="cls-55" points="591.42 554.34 623.34 375.85 608.72 373.79 583.35 554.34 591.42 554.34"/><polygon class="cls-55" points="702.72 554.34 677.34 373.79 662.73 375.85 694.64 554.34 702.72 554.34"/><rect class="cls-56" x="294.47" y="368.78" width="398.64" height="10.3"/><polygon class="cls-57" points="410.7 337.89 435.63 338.95 450.68 368.78 410.7 368.78 410.7 337.89"/><rect class="cls-58" x="388.46" y="337.89" width="48.56" height="30.89" rx="6.08"/><rect class="cls-59" x="385.6" y="337.89" width="48.56" height="30.89" rx="6.08"/><rect class="cls-60" x="382.85" y="336.37" width="48.56" height="30.89" rx="6.08"/><path class="cls-61" d="M572.52,416.59s-34.72-7-41.71-8.61-18.95.87-18.57,15.45,1,33.44,1,33.44"/><rect class="cls-29" x="39.66" y="519.15" width="13.95" height="25.41" transform="translate(93.27 1063.7) rotate(180)"/><path class="cls-62" d="M54.07,533.59v-3.52a1.43,1.43,0,0,0-1.43-1.43H41.09a1.43,1.43,0,0,0-1.43,1.43v14.49h0v12.87H85.35v-.73A6.31,6.31,0,0,0,81.72,551L58.06,539.86A6.94,6.94,0,0,1,54.07,533.59Z"/><path class="cls-63" d="M38.65,560.43h48a2.07,2.07,0,0,0,2.07-2.06h0a2.07,2.07,0,0,0-2.07-2.07h-48a2.07,2.07,0,0,0-2.07,2.07h0A2.07,2.07,0,0,0,38.65,560.43Z"/><path class="cls-64" d="M54.28,532.63H45.49a.77.77,0,0,1-.77-.78h0a.77.77,0,0,1,.77-.77h8.79a.78.78,0,0,1,.78.77h0A.78.78,0,0,1,54.28,532.63Z"/><path class="cls-64" d="M54.28,536.3H45.49a.77.77,0,0,1-.77-.78h0a.77.77,0,0,1,.77-.78h8.79a.78.78,0,0,1,.78.78h0A.78.78,0,0,1,54.28,536.3Z"/><rect class="cls-29" x="103.95" y="515.65" width="13.95" height="25.41" transform="translate(221.86 1056.72) rotate(180)"/><path class="cls-62" d="M118.37,530.09v-3.52a1.44,1.44,0,0,0-1.44-1.43H105.38a1.43,1.43,0,0,0-1.43,1.43v14.49h0v12.87h45.69v-.72A6.3,6.3,0,0,0,146,547.5l-23.67-11.13A6.94,6.94,0,0,1,118.37,530.09Z"/><path class="cls-63" d="M102.94,556.94h48a2.07,2.07,0,0,0,2.07-2.07h0a2.07,2.07,0,0,0-2.07-2.06h-48a2.07,2.07,0,0,0-2.07,2.06h0A2.07,2.07,0,0,0,102.94,556.94Z"/><path class="cls-64" d="M118.58,529.13h-8.8a.78.78,0,0,1-.77-.77h0a.78.78,0,0,1,.77-.78h8.8a.78.78,0,0,1,.77.78h0A.78.78,0,0,1,118.58,529.13Z"/><path class="cls-64" d="M118.58,532.8h-8.8A.78.78,0,0,1,109,532h0a.78.78,0,0,1,.77-.78h8.8a.78.78,0,0,1,.77.78h0A.78.78,0,0,1,118.58,532.8Z"/><path class="cls-65" d="M43.75,345.4s-2,46.68-4,76.88c-1.76,27-2,97.38-2.39,100.3s18.7,1.89,18.7,1.89,27-119,32.11-150.92,17.3-128.15,16-129.52-52.77,0-52.77,0Z"/><path class="cls-66" d="M47.24,422.86c2-30.65,4-78,4-78l7.64-101-7.52.18L43.75,345.4s-2,46.68-4,76.88c-1.76,27-2,97.38-2.39,100.3-.15,1.28,3.41,1.8,7.46,2C45.16,520.58,45.47,450,47.24,422.86Z"/><path class="cls-65" d="M93.54,249.18l26.25-4.81s4.56,90.37,4.56,155-2.21,119-2.21,119l-23.33,0s-5.15-42-6.19-57.27c-1.19-17.49-7.05-70-5.87-99.32S93.54,249.18,93.54,249.18Z"/><path class="cls-8" d="M70.73,290.85S92.51,301,116.3,289.59"/><path class="cls-29" d="M90.45,101s-.4,5.67-.38,10.15c0,2.07,1.64,1.85,1.91,2.75.85,2.83,2,.68,2,.68l10.11,16.63-3.77,14.5-19.14-.26-11.24-13-2.31-19.14a7.58,7.58,0,0,0,3.26-6.34c0-4.38,1.23-19.79.78-26.48s12.37,5,12.37,5Z"/><g class="cls-67"><path class="cls-34" d="M83.12,99.67S84,114,91.56,121.86s1.29-25.4,1.29-25.4L88.27,96Z"/></g><path class="cls-48" d="M65.05,124.84l6.11,3.47a25.54,25.54,0,0,0,28.13-1.92h0s14,2.89,16.79,35.38,2.13,119.84,2.13,119.84S97.47,293.51,73.9,285C53,277.55,65.05,124.84,65.05,124.84Z"/><path class="cls-15" d="M68.31,112.74s-17.9,6.83-25.57,10.31c-2.56,1.16-5.46,10.52-7.87,24.6-1.45,8.5-22-6.87-22.67,33.57-.14,8.7,16.69,12.46,15.9,20.62-1,10.59-1.86,20.13-2.4,27-2.29,28.6-10.19,131.56-10.19,131.56s44.39,5.27,63.38-.79c0,0,6.07-80.89,3.67-136.49S68.31,112.74,68.31,112.74Z"/><path class="cls-68" d="M24.62,157.49l49.95-1.33,1.23,21.67L39.49,202.52s-13.3,7.61-13.75-9.17S24.62,157.49,24.62,157.49Z"/><polygon class="cls-16" points="30.57 160.81 32.53 234.59 87.7 234.59 86.75 158.97 30.57 160.81"/><polygon class="cls-69" points="33.63 280.11 67.26 287.31 66.08 296.06 32.51 288.08 33.63 280.11"/><path class="cls-29" d="M198.84,172.7c1.07-.27,8.26-2,12.59-7.87s5.68-7.34,7.26-6.53c2.1,1.08,1.36,6.56-1.19,8.63s-2.66,6.22,1.28,5.08,15.5-4.34,19.34-3.58,4.75,2.49,4.24,3.24-9.48.21-18.13,4.59-19.43,9.28-19.43,9.28l-6.73,3.82-3.76-15.9S197.76,173,198.84,172.7Z"/><path class="cls-15" d="M124.35,135s20.18,35.15,40.35,37.17,36.44-8.31,36.44-8.31l9.26,25.05s-25.05,18.71-49.25,18.71a47.76,47.76,0,0,1-36.8-16.92Z"/><polyline class="cls-70" points="202.41 194.18 197.4 181.58 201.9 179.29 206.6 191.31"/><circle class="cls-70" cx="200.68" cy="182.77" r="0.95"/><path class="cls-15" d="M110.05,357.8h45.78s-17-178-26-209.87S90.08,112,90.08,112s7.39,44.29,14,132C110.69,331.38,110.05,357.8,110.05,357.8Z"/><path class="cls-29" d="M47.46,214.23s21.59-9.66,24.42-9.66S78,206.3,84,203.63c8.47-3.78,9.2-10,8.66-13.6s-.74-5.56-5-3.87-8.36,3.4-8.75,2.1c-.53-1.76,2.45-5.39.16-7.15-1.07-.82-2,.58-4.34,4.15s-4.44,7.51-7.78,8.61-24.49,3.53-24.49,3.53Z"/><path class="cls-15" d="M43.31,123s-19.44,5.19-34.77,37.68-7,56.1,1.71,59.49c11.79,4.58,40.5,2.47,58.35-9.69l-3.55-21.77S37.71,197.12,25.12,193c-4.85-1.58-11.78-18.85-9.61-26.41,3.46-12,19.33-16,22.77-18.09C43.89,145.07,43.31,123,43.31,123Z"/><path class="cls-8" d="M78.68,422.07s13-66.37,15.49-76.67"/><polygon class="cls-69" points="142.13 278.82 116.3 286.46 118.45 295.02 144.45 286.96 142.13 278.82"/><path class="cls-70" d="M184.4,202.9c-10.74,3.72-23.09,6.36-34.33,3.6a50.38,50.38,0,0,1-9.66-3.47"/><path class="cls-29" d="M101.48,63.62s3.19,15.08.52,25.5S94.82,106,86.3,106c-11,0-18.13-21.19-18.13-21.19l-1.93-29,25.27-1.73Z"/><path class="cls-36" d="M101.48,63.62l-10-9.51-2.67.18,8.47,8.09s3.54,16.71.57,28.26c-1.64,6.41-3.92,11.48-7.23,14.71,5.78-1.87,9.17-7.75,11.35-16.23C104.67,78.7,101.48,63.62,101.48,63.62Z"/><path class="cls-71" d="M72.9,58.25c1.54-.09,12.34,9.07,24,8.49S113,60.47,110,52.37s-14.66-12.83-26.81-12-22,4.44-23.34,13.5.67,25.37.67,25.37,8.87,2.7,8.87-8.2S71.35,58.35,72.9,58.25Z"/><path class="cls-29" d="M70.64,78.93s-3.8-7.53-9-3.8-.78,15.24,8.16,13.06S70.64,78.93,70.64,78.93Z"/><path class="cls-34" d="M67.09,79c.24,1-.5,1.72-.16,3s.59,3-.61,2.86S62.19,81.53,62.79,79,66.86,78,67.09,79Z"/><g class="cls-72"><path class="cls-73" d="M59.31,60.29s5.07-17.74,17-13.63,17.88.52,22.77,1.16,7.49,4.48,10.3,3.14-7.73-16.64-7.73-16.64L65,30.2,53.7,41.26Z"/></g><g class="cls-74"><path class="cls-75" d="M12.79,163.3C27.11,133,47.06,123,68.8,115.12l-.49-2.38s-17.9,6.83-25.57,10.31a1.94,1.94,0,0,0-.33.2c-4,1.46-20.5,9-33.87,37.38-13.23,28-8.86,49.43-1.8,57C2.18,206.61,1.51,187.2,12.79,163.3Z"/></g><path class="cls-75" d="M164.31,176c19.94,2.08,33.43-8.55,35.42-11.27l1.41-.81s-16.28,10.32-36.44,8.31S124.35,135,124.35,135l2.84,4.37C135.6,151.46,142.82,173.73,164.31,176Z"/><path class="cls-76" d="M703.88,503.42s-1.51-29.15,18-65.67c0,0,5.78,29.54-12.42,75.1S703.88,503.42,703.88,503.42Z"/><g class="cls-77"><path class="cls-78" d="M709.81,464s-1.13,12.65.11,19.12,3.33,18.94-.12,26.34S693,516.16,693,516.16l2.27-41.88,12.6-15.73Z"/></g><path class="cls-76" d="M691.74,475.13s-6.75-22.49-.46-81.26c0,0,16.75,17.41,15.51,118.09L698,512Z"/><g class="cls-79"><path class="cls-78" d="M675.2,419.45s20.69,27.17,21.52,44.43,5.85,33.3,6.09,40.3a58.34,58.34,0,0,1-1.87,14.76l-16.6-11-10.69-77.52Z"/></g><path class="cls-80" d="M695.74,510.11s-24.81-23.2-27.19-89.56c0,0,28.21,20.56,31.11,90.34"/><g class="cls-81"><path class="cls-82" d="M670.13,419.63s4.16,17.13,11.77,32,8.41,23.43,9.84,37.12,9.16,23.58,6.24,25.85S680.86,508,680.86,508l-22.27-52.92,3.73-32.83,4.48-6.47Z"/></g><polygon class="cls-83" points="713.01 585.84 691.15 585.96 682.28 507.97 721.01 507.75 713.01 585.84"/><polygon class="cls-84" points="683.22 516.21 720.16 516 721.01 507.75 682.28 507.97 683.22 516.21"/><line class="cls-13" x1="686.07" y1="516.2" x2="716.47" y2="516.03"/><path class="cls-70" d="M15.51,189.69s13.56,10.44,49.54-1.16"/><polyline class="cls-70" points="60.01 214.85 57.05 201.62 61.86 200.07 64.6 212.68"/><circle class="cls-70" cx="60.1" cy="203.31" r="0.95"/><path class="cls-85" d="M400,70.2a46.68,46.68,0,0,1-4.55,23.68h22.91s5.37-5.79,5.92-23.68Z"/><polygon class="cls-82" points="689.08 0 625.82 26.84 643.27 32.61 644.99 51.67 657.02 37.16 677.22 43.84 689.08 0"/><polygon class="cls-80" points="689.08 0 643.27 32.61 644.99 51.67 654.01 34.72 689.08 0"/><path class="cls-86" d="M642.61,56.27s-.55,1.33-1.7,3.62"/><path class="cls-87" d="M637.09,66.78c-7.25,12.1-22.1,32-47,45.41-36.48,19.6-92.9-30-146.37,3.19"/><path class="cls-86" d="M440.37,117.54c-1.08.75-2.16,1.53-3.24,2.35"/><rect class="cls-21" x="524.65" y="91.69" width="51.51" height="35.98" rx="6.85"/><polyline class="cls-13" points="527.15 93.84 550.41 112.49 573.67 93.84"/><rect class="cls-16" x="518.12" y="84.32" width="15.08" height="15.08" rx="7.54"/><text class="cls-88" transform="translate(523.15 94.8)">2</text><path class="cls-27" d="M551.81,186.72S574,169.17,572,160.1s1.3-59.47,33.81-60.77,40.71,11.12,52.18,9.29,15.3.3,24.59-5.14,37-9.94,40.1,11.16-10.6,35.75-5.68,42.9,15.7,11,9.29,18.34-12,26.73-39.34,24.71-24.59,11.84-44.25,11.19-38.7-.9-40.38,6.33-13.69,4.18-13.69,4.18l-7.72-29.9Z"/><path class="cls-89" d="M580.7,163.29c15.88-13.1,17.44-32.5,43.53-34.42s47.22-3.14,49.94-6.16,8.15-8.61,16.91-8.68"/><path class="cls-89" d="M600.08,185.46s17.22-25.05,49.83-24.6,43.18-13.13,45.29-15.09,10-10.59,14.79-8.39,11.48-7.77,11.48-7.77"/><path class="cls-50" d="M455,320s-2.46-9.06,5.93-8.37"/></g></g></g></svg>