<svg xmlns="http://www.w3.org/2000/svg" viewBox="0 0 233.89 220.35"><defs><style>.cls-1,.cls-3,.cls-4{stroke:#000;}.cls-1,.cls-3,.cls-4,.cls-7{stroke-miterlimit:10;}.cls-1{stroke-width:0.25px;}.cls-2{fill:#ff5f76;}.cls-3{fill:#333f60;}.cls-3,.cls-4{stroke-width:4px;}.cls-4{fill:#fc0;}.cls-5{fill:#fee929;}.cls-6{fill:#fff;}.cls-7{fill:none;stroke:#fc0;}.cls-8{fill:#57708a;}.cls-9{fill:#f5e349;}</style></defs><path class="cls-1" d="M152.52,190.45s4.72-4.74,7.74-4.53-1,1.21-1,1.21l-6.12,4.06-.6-.27Z"/><path class="cls-1" d="M151.19,193.16s5.51-3.8,8.44-3-1.23,1-1.23,1L151.65,194l-.55-.37Z"/><path class="cls-1" d="M152.69,194.6s5.63-2.4,8-1.14-1.29.68-1.29.68l-6.5,1.31-.39-.44Z"/><path class="cls-2" d="M51.61,145.33s-20.89-4-24.08-1.31,15.06,3.46,15.06,3.46Z"/><path class="cls-3" d="M63.47,86c7.21-5,46.44-28.86,76.83,13.87a7.31,7.31,0,0,1,1.08,2.25c4.1,14.62.65,60.32-.22,70.86a7.49,7.49,0,0,0,.89,4.2c2.29,4.19,7.6,13.55,9.92,14.32a3.22,3.22,0,0,1,1.9,2.51,7.4,7.4,0,0,1-3.63,8c-7.36,4.28-28.34,10.25-85.77.8a7.31,7.31,0,0,1-4.46-2.5c-7.83-9.46-9.8-35.7-10-38.88,0-.2,0-.41-.06-.61-.61-3.95-6.53-46.2,11.63-73A7.23,7.23,0,0,1,63.47,86Z"/><path class="cls-4" d="M74.41,94.66c.5.23,29.36,2.13,22.21,47.27-7,43.86-47.87,22-50.16,20.77a.76.76,0,0,0-.21-.08C44,162.05,15.51,153.93,3.78,150c-10.7-3.6,27.55-3.13,38.32-2.76a.93.93,0,0,0,.71-1.56L7.69,108.18a.92.92,0,0,1,.19-1.42C14,103,48.77,82.74,74.41,94.66Z"/><path class="cls-5" d="M10.14,107.84l1.62,1.7s66-31.78,83.77,12.8C95.53,122.34,90.88,64.3,10.14,107.84Z"/><circle class="cls-6" cx="99.03" cy="92.63" r="4.71"/><circle class="cls-6" cx="82.52" cy="87.6" r="4.08"/><circle class="cls-1" cx="97.19" cy="92.28" r="2.58"/><circle class="cls-1" cx="81.01" cy="87.12" r="2.58"/><path d="M71.05,97.64a5.16,5.16,0,0,1,4,.61c2.22,1.22-1.23.31-1.23.31"/><path d="M128.43,84.64s11.5,10.51,15.08,12.09-3.69,3.9-3.69,3.9Z"/><path class="cls-7" d="M98.59,195.75c4.64-9.74,9-23.41,4.22-36.89-1.22-3.47-1.92-3.72-2.89-6.44-6.64-18.57,12.93-42.47,22-53.56,17.15-21,36.06-17.76,47.78-39.33a60.93,60.93,0,0,0,4.67-11.11"/><path d="M115.24,165.67a.58.58,0,0,1-.21.18l-.12.05-.23.1-.46.17-.91.34-1.8.7c-1.2.47-2.38,1-3.54,1.49a30.84,30.84,0,0,0-6.49,3.79A9.89,9.89,0,0,0,99.11,175a3.59,3.59,0,0,0-.53,2.77,5.74,5.74,0,0,0,1.62,2.62,15,15,0,0,0,2.73,2.19,16.33,16.33,0,0,0,6.56,2.32,36.53,36.53,0,0,0,7.11.21,74.41,74.41,0,0,0,14.81-2.76l.19.35a27.59,27.59,0,0,1-6.81,4.11,31.54,31.54,0,0,1-7.76,2.28,21.93,21.93,0,0,1-8.3-.3,21.26,21.26,0,0,1-7.62-3.58,17.49,17.49,0,0,1-3.1-2.87A8.44,8.44,0,0,1,96,178.27a6.14,6.14,0,0,1,1.22-4.55,12.13,12.13,0,0,1,3.12-2.85,33,33,0,0,1,7.21-3.32c1.24-.42,2.48-.8,3.73-1.14l1.89-.49.94-.24.46-.12.22-.06.11,0s0,0,0,.06Z"/><path class="cls-8" d="M131.42,182.41a44.52,44.52,0,0,1-13.55,3.89,27.79,27.79,0,0,1-7.23-.06,19.1,19.1,0,0,1-7-2.42,18.34,18.34,0,0,1-3.07-2.32,8.35,8.35,0,0,1-2.37-3.61,6.36,6.36,0,0,1,.53-4.78,10.05,10.05,0,0,1,2.75-3.19,16.34,16.34,0,0,1,3.27-2,26.48,26.48,0,0,1,3.41-1.34,31,31,0,0,1,3.51-.86c.58-.12,1.19-.18,1.77-.27l.9-.09.44,0,.22,0h.14s0,0,0,0,0,0,0,.07l.38.14a.5.5,0,0,1-.08.12l0,0-.06.05-.1.07L115,166c-.13.09-.25.19-.38.27l-.75.49c-.5.3-1,.64-1.5.93l-2.94,1.8a42.2,42.2,0,0,0-5.35,3.7,11.06,11.06,0,0,0-1.89,2,2.66,2.66,0,0,0-.57,1.94,4.79,4.79,0,0,0,1.21,2.29,13.3,13.3,0,0,0,2.35,2,17.38,17.38,0,0,0,5.92,2.52,27.94,27.94,0,0,0,6.68.63,46.61,46.61,0,0,0,13.51-2.48Z"/><path class="cls-8" d="M133,182.41a44.58,44.58,0,0,1-13.56,3.89,27.8,27.8,0,0,1-7.23-.06,18,18,0,0,1-10.11-4.74,8.34,8.34,0,0,1-2.36-3.61,6.36,6.36,0,0,1,.52-4.78,10.08,10.08,0,0,1,2.76-3.19,16.06,16.06,0,0,1,3.27-2,25.92,25.92,0,0,1,3.41-1.34,30.44,30.44,0,0,1,3.51-.86c.58-.12,1.18-.18,1.77-.27l.89-.09.45,0,.22,0h.14s0,0,0,0a.1.1,0,0,0,0,.07l.38.14a.34.34,0,0,1-.09.12l0,0-.06.05-.09.07-.19.14c-.13.09-.25.19-.38.27l-.75.49c-.51.3-1,.64-1.5.93l-3,1.8a42.79,42.79,0,0,0-5.34,3.7,11.06,11.06,0,0,0-1.89,2,2.61,2.61,0,0,0-.57,1.94,4.85,4.85,0,0,0,1.2,2.29,13.67,13.67,0,0,0,2.35,2,17.52,17.52,0,0,0,5.93,2.52,27.91,27.91,0,0,0,6.67.63,46.67,46.67,0,0,0,13.52-2.48Z"/><path class="cls-8" d="M134.34,181.75a44.71,44.71,0,0,1-13.55,3.88,27.36,27.36,0,0,1-7.23-.06,19.08,19.08,0,0,1-7-2.41,18.34,18.34,0,0,1-3.07-2.32,8.45,8.45,0,0,1-2.37-3.62,6.41,6.41,0,0,1,.53-4.78,10.05,10.05,0,0,1,2.75-3.19,17.33,17.33,0,0,1,3.27-2,25.16,25.16,0,0,1,3.42-1.33,30.79,30.79,0,0,1,3.5-.86c.59-.12,1.19-.19,1.78-.28l.89-.09.44,0,.22,0H118s0,0,0,0a.12.12,0,0,0,0,.08l.37.14a.44.44,0,0,1-.08.11l0,0-.06,0-.1.08-.19.14-.37.26-.75.49c-.51.31-1,.64-1.5.93l-3,1.8a41.79,41.79,0,0,0-5.34,3.71,10.5,10.5,0,0,0-1.9,2,2.69,2.69,0,0,0-.57,1.93,4.79,4.79,0,0,0,1.21,2.29,13.77,13.77,0,0,0,2.35,2.06,17.36,17.36,0,0,0,5.92,2.51,27,27,0,0,0,6.68.63,46.61,46.61,0,0,0,13.51-2.48Z"/><path class="cls-8" d="M135,181.75a44.85,44.85,0,0,1-13.56,3.88,27.37,27.37,0,0,1-7.23-.06,19.1,19.1,0,0,1-7-2.41,18.34,18.34,0,0,1-3.07-2.32,8.36,8.36,0,0,1-2.37-3.62,6.36,6.36,0,0,1,.53-4.78,10.05,10.05,0,0,1,2.75-3.19,17,17,0,0,1,3.27-2,24.54,24.54,0,0,1,3.41-1.33,31,31,0,0,1,3.51-.86c.58-.12,1.18-.19,1.77-.28l.9-.09.44,0,.22,0h.14s0,0,0,0a.2.2,0,0,0,0,.08l.38.14a.44.44,0,0,1-.08.11l0,0-.05,0-.1.08-.19.14-.38.26-.75.49c-.5.31-1,.64-1.5.93l-3,1.8a41.79,41.79,0,0,0-5.34,3.71,10.42,10.42,0,0,0-1.89,2,2.65,2.65,0,0,0-.57,1.93,4.79,4.79,0,0,0,1.21,2.29,13.7,13.7,0,0,0,2.34,2.06,17.5,17.5,0,0,0,5.93,2.51,27,27,0,0,0,6.68.63,46.61,46.61,0,0,0,13.51-2.48Z"/><rect x="113.5" y="195.84" width="6.06" height="24.8" rx="3.03" transform="translate(276.72 385.1) rotate(167.06)"/><rect x="87.46" y="204.11" width="6.06" height="15" rx="3.03" transform="translate(115.43 440.41) rotate(-163.07)"/><circle class="cls-9" cx="201.67" cy="32.22" r="32.22"/><path class="cls-6" d="M204.05,4.69c2.69-3.2,11.42.08,16.75,6.4,1.87,2.22,3.43,4.93,3.16,5.25s-2.21-2.14-5.87-4.8c-3.82-2.77-8.5-6.17-12.57-4.8-.66.22-2,.81-2.35.26S203.57,5.26,204.05,4.69Z"/></svg>
